<svg width="32" height="32" viewBox="0 0 32 32" fill="none" xmlns="http://www.w3.org/2000/svg">
<path d="M24.8002 6.40002C25.8611 6.40002 26.8785 6.82145 27.6286 7.5716C28.3788 8.32174 28.8002 9.33916 28.8002 10.4V23.2C28.8002 24.2609 28.3788 25.2783 27.6286 26.0285C26.8785 26.7786 25.8611 27.2 24.8002 27.2H7.2002C6.13933 27.2 5.12191 26.7786 4.37177 26.0285C3.62162 25.2783 3.2002 24.2609 3.2002 23.2V10.4C3.2002 9.33916 3.62162 8.32174 4.37177 7.5716C5.12191 6.82145 6.13933 6.40002 7.2002 6.40002H24.8002ZM27.2002 12.7376L16.4066 19.0896C16.3046 19.1495 16.1905 19.1861 16.0726 19.1966C15.9548 19.2071 15.836 19.1913 15.725 19.1504L15.5938 19.0896L4.8002 12.7408V23.2C4.8002 23.8365 5.05305 24.447 5.50314 24.8971C5.95323 25.3472 6.56368 25.6 7.2002 25.6H24.8002C25.4367 25.6 26.0472 25.3472 26.4973 24.8971C26.9473 24.447 27.2002 23.8365 27.2002 23.2V12.7376ZM24.8002 8.00002H7.2002C6.56368 8.00002 5.95323 8.25288 5.50314 8.70297C5.05305 9.15305 4.8002 9.7635 4.8002 10.4V10.8832L16.0002 17.472L27.2002 10.88V10.4C27.2002 9.7635 26.9473 9.15305 26.4973 8.70297C26.0472 8.25288 25.4367 8.00002 24.8002 8.00002Z" fill="#ED5B2E"/>
</svg>
