<svg width="32" height="32" viewBox="0 0 32 32" fill="none" xmlns="http://www.w3.org/2000/svg">
<path d="M27.6988 20.0375L21.7938 17.3913C21.5262 17.2766 21.2343 17.2305 20.9444 17.2572C20.6546 17.2838 20.3759 17.3823 20.1338 17.5438C20.1092 17.5595 20.0858 17.5771 20.0638 17.5963L16.9775 20.2213C16.9455 20.2387 16.9098 20.2485 16.8734 20.2498C16.837 20.2511 16.8007 20.2439 16.7675 20.2288C14.7838 19.2713 12.7288 17.2288 11.7675 15.2725C11.7515 15.2398 11.7432 15.2039 11.7432 15.1675C11.7432 15.1311 11.7515 15.0952 11.7675 15.0625L14.4013 11.9375C14.4202 11.9144 14.4377 11.8902 14.4538 11.865C14.613 11.6219 14.7092 11.3429 14.7336 11.0533C14.7581 10.7638 14.71 10.4726 14.5938 10.2063L11.9663 4.31126C11.8171 3.96327 11.559 3.67306 11.2308 3.48419C10.9027 3.29532 10.5221 3.21797 10.1463 3.26376C8.5128 3.47851 7.01341 4.28068 5.92829 5.52039C4.84318 6.76009 4.24659 8.35249 4.25001 10C4.25001 19.7875 12.2125 27.75 22 27.75C23.6475 27.7532 25.2397 27.1565 26.4794 26.0714C27.719 24.9864 28.5213 23.4871 28.7363 21.8538C28.782 21.4797 28.7057 21.1008 28.5187 20.7736C28.3318 20.4463 28.0442 20.1882 27.6988 20.0375ZM22 26.25C13.04 26.25 5.75001 18.96 5.75001 10C5.74584 8.71742 6.20877 7.47719 7.05232 6.51102C7.89587 5.54486 9.06233 4.91887 10.3338 4.75001H10.3625C10.4129 4.75095 10.4618 4.76709 10.5028 4.79631C10.5439 4.82553 10.5751 4.86647 10.5925 4.91376L13.23 10.8025C13.2451 10.8353 13.2528 10.8709 13.2528 10.9069C13.2528 10.9429 13.2451 10.9785 13.23 11.0113L10.5913 14.1438C10.5716 14.1661 10.5536 14.1899 10.5375 14.215C10.3724 14.4671 10.2752 14.7575 10.2552 15.0582C10.2353 15.3589 10.2934 15.6596 10.4238 15.9313C11.5325 18.2013 13.82 20.4713 16.115 21.58C16.3883 21.7097 16.6905 21.7663 16.9921 21.7444C17.2938 21.7225 17.5846 21.6228 17.8363 21.455C17.86 21.4388 17.8838 21.4213 17.9063 21.4025L20.9913 18.7775C21.0217 18.7611 21.0554 18.7515 21.0899 18.7494C21.1244 18.7472 21.159 18.7526 21.1913 18.765L27.0975 21.4113C27.1458 21.4318 27.1863 21.467 27.2135 21.5119C27.2406 21.5567 27.253 21.609 27.2488 21.6613C27.0808 22.9333 26.4554 24.1006 25.4894 24.9451C24.5235 25.7896 23.2831 26.2535 22 26.25Z" fill="#ED5B2E"/>
</svg>
