<svg width="32" height="32" viewBox="0 0 32 32" fill="none" xmlns="http://www.w3.org/2000/svg">
<path fill-rule="evenodd" clip-rule="evenodd" d="M6.35693 13.0027C6.35693 7.65178 10.6711 3.30951 15.9998 3.30951C21.3284 3.30951 25.6426 7.65178 25.6426 13.0027C25.6426 15.5567 24.0443 18.8899 21.0291 22.9525L21.0261 22.9565L20.3022 23.9115C19.422 25.0482 18.4342 26.2413 17.3379 27.4968L17.3353 27.4999L16.3738 28.5833C16.2794 28.6896 16.1443 28.7507 16.0022 28.7514C15.86 28.7521 15.7244 28.6922 15.629 28.5869C14.2628 27.0766 12.9518 25.5186 11.6986 23.9129L11.6942 23.9074L10.9705 22.9525C7.95521 18.8899 6.35693 15.5567 6.35693 13.0027ZM15.9998 4.30951C11.2286 4.30951 7.35693 8.19886 7.35693 13.0027C7.35693 15.2056 8.76922 18.3083 11.772 22.3545C11.7725 22.3551 11.773 22.3558 11.7735 22.3565L12.4891 23.3005C13.612 24.7392 14.7821 26.1393 15.9975 27.5008L16.5847 26.8391C16.5851 26.8386 16.5855 26.8381 16.586 26.8377C17.6706 25.5954 18.6446 24.4187 19.5099 23.3013C19.5104 23.3006 19.511 23.2999 19.5115 23.2992L20.2261 22.3565C20.2266 22.3558 20.2271 22.3552 20.2276 22.3545C23.2304 18.3083 24.6426 15.2056 24.6426 13.0027C24.6426 8.19886 20.771 4.30951 15.9998 4.30951Z" fill="#ED5B2E"/>
<path fill-rule="evenodd" clip-rule="evenodd" d="M16 9.64282C14.1722 9.64282 12.6904 11.1245 12.6904 12.9523C12.6904 14.7801 14.1722 16.2619 16 16.2619C17.8278 16.2619 19.3095 14.7801 19.3095 12.9523C19.3095 11.1245 17.8278 9.64282 16 9.64282ZM11.6904 12.9523C11.6904 10.5723 13.6199 8.64282 16 8.64282C18.38 8.64282 20.3095 10.5723 20.3095 12.9523C20.3095 15.3324 18.38 17.2619 16 17.2619C13.6199 17.2619 11.6904 15.3324 11.6904 12.9523Z" fill="#ED5B2E"/>
</svg>
