<svg width="40" height="35" viewBox="0 0 40 35" fill="none" xmlns="http://www.w3.org/2000/svg">
<rect width="40" height="35" rx="6" fill="#166AE3" fill-opacity="0.1"/>
<g clip-path="url(#clip0_301_3247)">
<path fill-rule="evenodd" clip-rule="evenodd" d="M26.0008 14.7362C26.0008 14.9297 25.9233 15.1233 25.784 15.2627L19.1255 21.9212C18.9861 22.0605 18.7926 22.1379 18.599 22.1379C18.4054 22.1379 18.2119 22.0605 18.0725 21.9212L14.2168 18.0654C14.0774 17.9261 14 17.7325 14 17.5389C14 17.3454 14.0774 17.1518 14.2168 17.0125L15.2698 15.9595C15.4091 15.8201 15.6027 15.7427 15.7962 15.7427C15.9898 15.7427 16.1834 15.8201 16.3227 15.9595L18.599 18.2435L23.678 13.1567C23.8174 13.0174 24.011 12.9399 24.2045 12.9399C24.3981 12.9399 24.5916 13.0174 24.731 13.1567L25.784 14.2097C25.9233 14.3491 26.0008 14.5426 26.0008 14.7362Z" fill="#166AE3"/>
</g>
<defs>
<clipPath id="clip0_301_3247">
<rect width="12" height="12" fill="white" transform="translate(14 11.5)"/>
</clipPath>
</defs>
</svg>
