<svg width="71" height="70" viewBox="0 0 71 70" fill="none" xmlns="http://www.w3.org/2000/svg">
<rect x="0.811523" width="70" height="70" rx="16" fill="#E32D9F" fill-opacity="0.2"/>
<path d="M47.006 34.5C46.2324 34.5 45.4906 34.1927 44.9436 33.6457C44.3966 33.0987 44.0893 32.3569 44.0893 31.5833C44.0893 30.8098 44.3966 30.0679 44.9436 29.5209C45.4906 28.974 46.2324 28.6667 47.006 28.6667C47.7795 28.6667 48.5214 28.974 49.0684 29.5209C49.6153 30.0679 49.9226 30.8098 49.9226 31.5833C49.9226 32.3569 49.6153 33.0987 49.0684 33.6457C48.5214 34.1927 47.7795 34.5 47.006 34.5ZM41.1726 26.7222C40.3991 26.7222 39.6572 26.4149 39.1102 25.868C38.5633 25.321 38.256 24.5791 38.256 23.8056C38.256 23.032 38.5633 22.2901 39.1102 21.7432C39.6572 21.1962 40.3991 20.8889 41.1726 20.8889C41.9462 20.8889 42.688 21.1962 43.235 21.7432C43.782 22.2901 44.0893 23.032 44.0893 23.8056C44.0893 24.5791 43.782 25.321 43.235 25.868C42.688 26.4149 41.9462 26.7222 41.1726 26.7222ZM31.4504 26.7222C30.6769 26.7222 29.935 26.4149 29.388 25.868C28.841 25.321 28.5337 24.5791 28.5337 23.8056C28.5337 23.032 28.841 22.2901 29.388 21.7432C29.935 21.1962 30.6769 20.8889 31.4504 20.8889C32.224 20.8889 32.9658 21.1962 33.5128 21.7432C34.0598 22.2901 34.3671 23.032 34.3671 23.8056C34.3671 24.5791 34.0598 25.321 33.5128 25.868C32.9658 26.4149 32.224 26.7222 31.4504 26.7222ZM25.6171 34.5C24.8435 34.5 24.1017 34.1927 23.5547 33.6457C23.0077 33.0987 22.7004 32.3569 22.7004 31.5833C22.7004 30.8098 23.0077 30.0679 23.5547 29.5209C24.1017 28.974 24.8435 28.6667 25.6171 28.6667C26.3906 28.6667 27.1325 28.974 27.6795 29.5209C28.2265 30.0679 28.5337 30.8098 28.5337 31.5833C28.5337 32.3569 28.2265 33.0987 27.6795 33.6457C27.1325 34.1927 26.3906 34.5 25.6171 34.5ZM36.3115 17C31.6702 17 27.219 18.8437 23.9372 22.1256C20.6553 25.4075 18.8115 29.8587 18.8115 34.5C18.8115 39.1413 20.6553 43.5925 23.9372 46.8744C27.219 50.1563 31.6702 52 36.3115 52C37.0851 52 37.8269 51.6927 38.3739 51.1457C38.9209 50.5987 39.2282 49.8569 39.2282 49.0833C39.2282 48.325 38.9365 47.6444 38.4699 47.1389C38.0226 46.6139 37.731 45.9333 37.731 45.1944C37.731 44.4209 38.0383 43.679 38.5852 43.1321C39.1322 42.5851 39.8741 42.2778 40.6476 42.2778H44.0893C46.6678 42.2778 49.1407 41.2535 50.964 39.4302C52.7872 37.6069 53.8115 35.134 53.8115 32.5556C53.8115 23.9611 45.9754 17 36.3115 17Z" fill="#E32D9F"/>
</svg>
