<svg width="16" height="16" viewBox="0 0 16 16" fill="none" xmlns="http://www.w3.org/2000/svg">
<g clip-path="url(#clip0_1014_2564)">
<path fill-rule="evenodd" clip-rule="evenodd" d="M16.001 4.31491C16.001 4.57299 15.8978 4.83107 15.712 5.01689L6.83398 13.8949C6.64816 14.0807 6.39008 14.1839 6.132 14.1839C5.87392 14.1839 5.61584 14.0807 5.43002 13.8949L0.28905 8.7539C0.103232 8.56808 0 8.31 0 8.05192C0 7.79384 0.103232 7.53576 0.28905 7.34994L1.69301 5.94598C1.87883 5.76016 2.13691 5.65693 2.39499 5.65693C2.65307 5.65693 2.91115 5.76016 3.09697 5.94598L6.132 8.99134L12.904 2.20897C13.0899 2.02315 13.3479 1.91992 13.606 1.91992C13.8641 1.91992 14.1222 2.02315 14.308 2.20897L15.712 3.61293C15.8978 3.79875 16.001 4.05683 16.001 4.31491Z" fill="#1BAF91"/>
</g>
<defs>
<clipPath id="clip0_1014_2564">
<rect width="16" height="16" fill="white"/>
</clipPath>
</defs>
</svg>
