<svg width="71" height="70" viewBox="0 0 71 70" fill="none" xmlns="http://www.w3.org/2000/svg">
<rect x="0.811523" width="70" height="70" rx="16" fill="#02BF10" fill-opacity="0.2"/>
<path d="M42.8741 17H50.8436L51.0186 17.0245L51.1919 17.0735L51.2969 17.119C51.4369 17.1785 51.5646 17.2677 51.6801 17.3815L51.7501 17.4585L51.8271 17.5583L51.9216 17.7157L51.9899 17.8733L52.0231 17.9852L52.0476 18.0973L52.0634 18.2635V26.1945C52.0633 26.527 51.937 26.8471 51.7099 27.0901C51.4829 27.3331 51.1721 27.4809 50.8403 27.5035C50.5086 27.5262 50.1806 27.4221 49.9226 27.2122C49.6646 27.0024 49.496 26.7024 49.4506 26.373L49.4384 26.1945V21.4783L38.1684 32.7482C37.9461 32.9705 37.6515 33.1057 37.3381 33.1291C37.0246 33.1526 36.7132 33.0627 36.4604 32.876L36.3134 32.75L31.0109 27.6575L21.0534 37.6133C20.8192 37.8481 20.5048 37.9856 20.1733 37.998C19.8419 38.0105 19.5181 37.897 19.2669 37.6804C19.0157 37.4638 18.8559 37.1602 18.8195 36.8305C18.783 36.5009 18.8728 36.1697 19.0706 35.9035L19.1984 35.7565L30.0834 24.8715C30.3058 24.6495 30.6006 24.5147 30.914 24.4915C31.2274 24.4684 31.5388 24.5585 31.7914 24.7455L31.9384 24.8715L37.2409 29.964L47.5799 19.625H42.8724C42.5555 19.6246 42.2495 19.5095 42.0108 19.3011C41.7722 19.0927 41.617 18.8049 41.5739 18.491L41.5616 18.3125C41.5616 17.9953 41.6765 17.6889 41.885 17.4499C42.0934 17.2108 42.3814 17.0554 42.6956 17.0122L42.8741 17ZM20.1259 43.25C20.474 43.25 20.8078 43.3883 21.054 43.6344C21.3001 43.8806 21.4384 44.2144 21.4384 44.5625V50.6875C21.4384 51.0356 21.3001 51.3694 21.054 51.6156C20.8078 51.8617 20.474 52 20.1259 52C19.7778 52 19.4439 51.8617 19.1978 51.6156C18.9517 51.3694 18.8134 51.0356 18.8134 50.6875V44.5625C18.8134 44.2144 18.9517 43.8806 19.1978 43.6344C19.4439 43.3883 19.7778 43.25 20.1259 43.25ZM30.1884 37.5625C30.1884 37.2144 30.0501 36.8806 29.804 36.6344C29.5578 36.3883 29.224 36.25 28.8759 36.25C28.5278 36.25 28.1939 36.3883 27.9478 36.6344C27.7017 36.8806 27.5634 37.2144 27.5634 37.5625V50.6875C27.5634 51.0356 27.7017 51.3694 27.9478 51.6156C28.1939 51.8617 28.5278 52 28.8759 52C29.224 52 29.5578 51.8617 29.804 51.6156C30.0501 51.3694 30.1884 51.0356 30.1884 50.6875V37.5625ZM37.6259 39.75C37.974 39.75 38.3078 39.8883 38.554 40.1344C38.8001 40.3806 38.9384 40.7144 38.9384 41.0625V50.6875C38.9384 51.0356 38.8001 51.3694 38.554 51.6156C38.3078 51.8617 37.974 52 37.6259 52C37.2778 52 36.9439 51.8617 36.6978 51.6156C36.4517 51.3694 36.3134 51.0356 36.3134 50.6875V41.0625C36.3134 40.7144 36.4517 40.3806 36.6978 40.1344C36.9439 39.8883 37.2778 39.75 37.6259 39.75ZM47.6884 32.3125C47.6884 31.9644 47.5501 31.6306 47.304 31.3844C47.0578 31.1383 46.724 31 46.3759 31C46.0278 31 45.6939 31.1383 45.4478 31.3844C45.2017 31.6306 45.0634 31.9644 45.0634 32.3125V50.6875C45.0634 51.0356 45.2017 51.3694 45.4478 51.6156C45.6939 51.8617 46.0278 52 46.3759 52C46.724 52 47.0578 51.8617 47.304 51.6156C47.5501 51.3694 47.6884 51.0356 47.6884 50.6875V32.3125Z" fill="#02BF10"/>
</svg>
