<svg width="71" height="70" viewBox="0 0 71 70" fill="none" xmlns="http://www.w3.org/2000/svg">
<rect x="0.811523" width="70" height="70" rx="16" fill="#E39D17" fill-opacity="0.2"/>
<path d="M35.8112 18.3333C26.6062 18.3333 19.1445 25.7949 19.1445 34.9999C19.1445 44.2049 26.6062 51.6666 35.8112 51.6666C45.0162 51.6666 52.4779 44.2049 52.4779 34.9999C52.4779 25.7949 45.0162 18.3333 35.8112 18.3333Z" stroke="#E39D17" stroke-width="3" stroke-linecap="round" stroke-linejoin="round"/>
<path d="M29.1445 50.2798V38.3332L35.8112 26.6665L42.4779 38.3332V50.2798" stroke="#E39D17" stroke-width="3" stroke-linecap="round" stroke-linejoin="round"/>
<path d="M29.1445 38.3333C29.1445 38.3333 31.0229 39.9999 32.4779 39.9999C33.9329 39.9999 35.8112 38.3333 35.8112 38.3333C35.8112 38.3333 37.6895 39.9999 39.1445 39.9999C40.5995 39.9999 42.4779 38.3333 42.4779 38.3333" stroke="#E39D17" stroke-width="3" stroke-linecap="round" stroke-linejoin="round"/>
</svg>
