<svg width="71" height="70" viewBox="0 0 71 70" fill="none" xmlns="http://www.w3.org/2000/svg">
<rect x="0.811523" width="70" height="70" rx="16" fill="#1872F0" fill-opacity="0.2"/>
<g clip-path="url(#clip0_301_3424)">
<path d="M51.4365 20.25C51.0067 19.9719 50.5152 19.8037 50.0052 19.7601C49.4952 19.7165 48.9823 19.7989 48.5115 20L33.0865 26.075C32.7213 26.2236 32.3308 26.3 31.9365 26.3H22.0615C21.2327 26.3 20.4379 26.6292 19.8518 27.2153C19.2658 27.8013 18.9365 28.5962 18.9365 29.425V29.675H15.8115V37.175H18.9365V37.5C18.9561 38.3157 19.294 39.0914 19.8779 39.6614C20.4619 40.2313 21.2456 40.5502 22.0615 40.55L25.8115 48.5C26.0654 49.0353 26.4652 49.4882 26.9649 49.8066C27.4646 50.125 28.044 50.296 28.6365 50.3H30.2115C31.036 50.2934 31.8244 49.9612 32.4051 49.3759C32.9857 48.7906 33.3116 47.9995 33.3115 47.175V40.85L48.5115 46.925C48.8854 47.0738 49.2841 47.1501 49.6865 47.15C50.3108 47.1399 50.9187 46.9489 51.4365 46.6C51.8477 46.3223 52.1869 45.9508 52.426 45.5161C52.6651 45.0813 52.7972 44.5959 52.8115 44.1V22.825C52.8092 22.3163 52.6828 21.8158 52.4432 21.3671C52.2035 20.9183 51.858 20.5349 51.4365 20.25ZM30.1865 29.425V37.5H22.0615V29.425H30.1865ZM30.1865 47.175H28.6115L25.5365 40.55H30.1865V47.175ZM34.2365 37.875C33.9397 37.7233 33.6302 37.5978 33.3115 37.5V29.25C33.6271 29.1849 33.9366 29.0929 34.2365 28.975L49.6865 22.825V44.025L34.2365 37.875ZM52.8865 30.3V36.55C53.7153 36.55 54.5102 36.2207 55.0962 35.6347C55.6823 35.0486 56.0115 34.2538 56.0115 33.425C56.0115 32.5962 55.6823 31.8013 55.0962 31.2153C54.5102 30.6292 53.7153 30.3 52.8865 30.3Z" fill="#1872F0"/>
</g>
<defs>
<clipPath id="clip0_301_3424">
<rect width="40" height="40" fill="white" transform="translate(15.8115 15)"/>
</clipPath>
</defs>
</svg>
