<svg width="40" height="36" viewBox="0 0 40 36" fill="none" xmlns="http://www.w3.org/2000/svg">
<rect y="0.5" width="40" height="35" rx="6" fill="white" fill-opacity="0.1"/>
<g clip-path="url(#clip0_301_3209)">
<path fill-rule="evenodd" clip-rule="evenodd" d="M26.0008 15.2362C26.0008 15.4297 25.9233 15.6233 25.784 15.7627L19.1255 22.4212C18.9861 22.5605 18.7926 22.6379 18.599 22.6379C18.4054 22.6379 18.2119 22.5605 18.0725 22.4212L14.2168 18.5654C14.0774 18.4261 14 18.2325 14 18.0389C14 17.8454 14.0774 17.6518 14.2168 17.5125L15.2698 16.4595C15.4091 16.3201 15.6027 16.2427 15.7962 16.2427C15.9898 16.2427 16.1834 16.3201 16.3227 16.4595L18.599 18.7435L23.678 13.6567C23.8174 13.5174 24.011 13.4399 24.2045 13.4399C24.3981 13.4399 24.5916 13.5174 24.731 13.6567L25.784 14.7097C25.9233 14.8491 26.0008 15.0426 26.0008 15.2362Z" fill="white"/>
</g>
<defs>
<clipPath id="clip0_301_3209">
<rect width="12" height="12" fill="white" transform="translate(14 12)"/>
</clipPath>
</defs>
</svg>
