<svg width="38" height="37" viewBox="0 0 38 37" fill="none" xmlns="http://www.w3.org/2000/svg">
<circle cx="19" cy="18.5" r="18.5" fill="#7016E3" fill-opacity="0.1"/>
<path fill-rule="evenodd" clip-rule="evenodd" d="M21.793 14.2928C21.9805 14.1053 22.2348 14 22.5 14C22.7652 14 23.0195 14.1053 23.207 14.2928L27.207 18.2928C27.3945 18.4803 27.4998 18.7346 27.4998 18.9998C27.4998 19.265 27.3945 19.5193 27.207 19.7068L23.207 23.7068C23.0184 23.8889 22.7658 23.9897 22.5036 23.9875C22.2414 23.9852 21.9906 23.88 21.8052 23.6946C21.6198 23.5092 21.5146 23.2584 21.5123 22.9962C21.51 22.734 21.6108 22.4814 21.793 22.2928L24.086 19.9998H12.5C12.2348 19.9998 11.9804 19.8944 11.7929 19.7069C11.6054 19.5194 11.5 19.265 11.5 18.9998C11.5 18.7346 11.6054 18.4802 11.7929 18.2927C11.9804 18.1051 12.2348 17.9998 12.5 17.9998H24.086L21.793 15.7068C21.6055 15.5193 21.5002 15.265 21.5002 14.9998C21.5002 14.7346 21.6055 14.4803 21.793 14.2928Z" fill="#7016E3"/>
</svg>
