<svg width="43" height="31" viewBox="0 0 43 31" fill="none" xmlns="http://www.w3.org/2000/svg">
<path d="M13.1571 15.4857C9.11599 15.4857 5.85706 12.2268 5.85706 8.18571C5.85706 4.20982 9.11599 0.885714 13.1571 0.885714C17.133 0.885714 20.4571 4.20982 20.4571 8.18571C20.4571 12.2268 17.133 15.4857 13.1571 15.4857ZM18.1106 17.5714C22.2821 17.5714 25.6713 20.9607 25.6713 25.1321V26.9571C25.6713 28.717 24.2374 30.0857 22.5428 30.0857H3.77135C2.01153 30.0857 0.642776 28.717 0.642776 26.9571V25.1321C0.642776 20.9607 3.96688 17.5714 8.13831 17.5714H8.65974C10.0285 18.2232 11.5276 18.6143 13.1571 18.6143C14.7213 18.6143 16.2205 18.2232 17.5892 17.5714H18.1106ZM31.9285 15.4857C28.474 15.4857 25.6713 12.683 25.6713 9.22857C25.6713 5.77411 28.474 2.97143 31.9285 2.97143C35.383 2.97143 38.1856 5.77411 38.1856 9.22857C38.1856 12.683 35.383 15.4857 31.9285 15.4857ZM35.0571 17.5714C39.033 17.5714 42.3571 20.8955 42.3571 24.8714C42.3571 26.6312 40.9231 28 39.2285 28H27.6919C27.6919 27.8696 27.7571 27.7393 27.7571 27.6089V25.1321C27.7571 22.5902 26.7142 20.3089 25.1499 18.6143C26.1928 17.9625 27.4312 17.5714 28.7999 17.5714H28.9955C29.908 17.8973 30.8856 18.0929 31.9285 18.0929C32.9062 18.0929 33.8838 17.8973 34.7963 17.5714H35.0571Z" fill="#FF6600"/>
</svg>
