<svg width="31" height="19" viewBox="0 0 31 19" fill="none" xmlns="http://www.w3.org/2000/svg">
<path d="M24.8277 3H30.4995V15H27.4995C26.6558 15 25.9995 14.3438 25.9995 13.5H23.2808C23.187 13.9219 22.9995 14.25 22.7652 14.5781L21.5464 16.125C20.7964 17.0156 19.5777 17.2969 18.5464 16.875C17.8902 17.6719 17.0933 18 16.2495 18C15.5464 18 14.8902 17.7656 14.3277 17.2969C12.8277 18.2812 10.812 18.2812 9.35892 17.1094L5.42142 13.5H4.95267C4.95267 14.3438 4.29642 15 3.49954 15H0.499544V3H6.03079L8.23392 0.796875C8.74954 0.28125 9.40579 0 10.1089 0H20.7495C21.4527 0 22.1089 0.328125 22.5777 0.796875L24.8277 3ZM2.74954 13.5C3.12454 13.5 3.49954 13.1719 3.49954 12.75C3.49954 12.3281 3.12454 12 2.74954 12C2.32767 12 1.99954 12.3281 1.99954 12.75C1.99954 13.1719 2.32767 13.5 2.74954 13.5ZM21.0308 13.1719C21.1245 13.0312 21.1245 12.7969 20.937 12.6562L15.8745 8.53125L15.4995 8.90625C13.6245 10.5938 11.4214 9.42188 10.7183 8.67188C9.49954 7.3125 9.54642 5.20312 10.9527 3.9375L12.7808 2.25H10.1089C10.0152 2.29688 9.92142 2.34375 9.82767 2.39062L6.92142 5.25H4.99954V11.25H6.26517L10.8589 15.375C11.6089 15.9844 12.7808 15.8906 13.437 15.0938L14.1402 14.2031L15.8745 15.6562C16.0152 15.75 16.437 15.8906 16.7183 15.5625L18.1245 13.8281L19.2495 14.7656C19.437 14.8594 19.6714 14.8594 19.7652 14.6719L21.0308 13.1719ZM25.9995 11.25V5.25H23.8902L20.9839 2.39062C20.937 2.29688 20.8433 2.25 20.7495 2.25L16.812 2.29688C16.3433 2.29688 15.8745 2.4375 15.5464 2.76562L12.4527 5.57812C12.0308 6 11.9839 6.70312 12.4058 7.17188C12.8277 7.64062 13.5777 7.59375 14.0464 7.17188L16.6245 4.82812C16.9058 4.54688 17.4214 4.54688 17.7027 4.875L18.1714 5.39062C18.4527 5.71875 18.4527 6.1875 18.1245 6.46875L17.562 6.98438L22.3902 10.9219C22.4839 11.0156 22.6245 11.1562 22.7183 11.25H25.9995ZM28.2495 13.5C28.6245 13.5 28.9995 13.1719 28.9995 12.75C28.9995 12.3281 28.6245 12 28.2495 12C27.8277 12 27.4995 12.3281 27.4995 12.75C27.4995 13.1719 27.8277 13.5 28.2495 13.5Z" fill="#7016E3"/>
</svg>
