<svg width="71" height="71" viewBox="0 0 71 71" fill="none" xmlns="http://www.w3.org/2000/svg">
<rect x="0.385742" y="0.861572" width="70" height="70" rx="16" fill="#5B56B5" fill-opacity="0.2"/>
<path d="M50.3854 45.8615H47.0521V40.8615C47.0521 40.4195 46.8765 39.9956 46.5639 39.683C46.2514 39.3704 45.8274 39.1948 45.3854 39.1948H37.0521V34.6782L38.9354 35.6615C39.2101 35.8052 39.5193 35.8694 39.8285 35.847C40.1376 35.8246 40.4344 35.7164 40.6855 35.5346C40.9365 35.3528 41.1319 35.1046 41.2497 34.8179C41.3674 34.5312 41.4029 34.2173 41.3521 33.9115L40.6854 29.9615L43.5521 27.1448C43.7692 26.9328 43.9243 26.6655 44.0007 26.3718C44.0771 26.0781 44.0718 25.7691 43.9854 25.4782C43.8888 25.182 43.7111 24.9188 43.4725 24.7184C43.2339 24.5181 42.9439 24.3887 42.6354 24.3448L38.7188 23.7282L36.8854 20.1282C36.7489 19.8464 36.5359 19.6087 36.2706 19.4425C36.0053 19.2762 35.6985 19.188 35.3854 19.188C35.0723 19.188 34.7656 19.2762 34.5003 19.4425C34.235 19.6087 34.0219 19.8464 33.8854 20.1282L32.0521 23.7282L28.0688 24.3115C27.7603 24.3553 27.4703 24.4848 27.2317 24.6851C26.993 24.8854 26.8154 25.1486 26.7188 25.4448C26.6324 25.7358 26.6271 26.0448 26.7035 26.3385C26.7798 26.6322 26.935 26.8995 27.1521 27.1115L30.0854 29.9615L29.4188 33.9115C29.3679 34.2173 29.4034 34.5312 29.5212 34.8179C29.6389 35.1046 29.8343 35.3528 30.0854 35.5346C30.3364 35.7164 30.6332 35.8246 30.9423 35.847C31.2515 35.8694 31.5608 35.8052 31.8354 35.6615L33.7188 34.6782V39.1948H25.3854C24.9434 39.1948 24.5195 39.3704 24.2069 39.683C23.8943 39.9956 23.7188 40.4195 23.7188 40.8615V45.8615H20.3854C19.9434 45.8615 19.5195 46.0371 19.2069 46.3497C18.8943 46.6622 18.7188 47.0861 18.7188 47.5282V50.8615C18.7188 51.3035 18.8943 51.7275 19.2069 52.04C19.5195 52.3526 19.9434 52.5282 20.3854 52.5282C20.8274 52.5282 21.2514 52.3526 21.5639 52.04C21.8765 51.7275 22.0521 51.3035 22.0521 50.8615V49.1948H28.7188V50.8615C28.7188 51.3035 28.8943 51.7275 29.2069 52.04C29.5195 52.3526 29.9434 52.5282 30.3854 52.5282C30.8274 52.5282 31.2514 52.3526 31.5639 52.04C31.8765 51.7275 32.0521 51.3035 32.0521 50.8615V47.5282C32.0521 47.0861 31.8765 46.6622 31.5639 46.3497C31.2514 46.0371 30.8274 45.8615 30.3854 45.8615H27.0521V42.5282H43.7188V45.8615H40.3854C39.9434 45.8615 39.5195 46.0371 39.2069 46.3497C38.8943 46.6622 38.7188 47.0861 38.7188 47.5282V50.8615C38.7188 51.3035 38.8943 51.7275 39.2069 52.04C39.5195 52.3526 39.9434 52.5282 40.3854 52.5282C40.8274 52.5282 41.2514 52.3526 41.5639 52.04C41.8765 51.7275 42.0521 51.3035 42.0521 50.8615V49.1948H48.7188V50.8615C48.7188 51.3035 48.8943 51.7275 49.2069 52.04C49.5195 52.3526 49.9434 52.5282 50.3854 52.5282C50.8274 52.5282 51.2514 52.3526 51.5639 52.04C51.8765 51.7275 52.0521 51.3035 52.0521 50.8615V47.5282C52.0521 47.0861 51.8765 46.6622 51.5639 46.3497C51.2514 46.0371 50.8274 45.8615 50.3854 45.8615ZM35.3854 30.2448C35.1118 30.2462 34.8428 30.3149 34.6021 30.4448L33.2688 31.1448L33.5188 29.6448C33.5625 29.3795 33.5414 29.1075 33.4572 28.8521C33.373 28.5968 33.2283 28.3655 33.0354 28.1782L31.9521 27.1115L33.4521 26.8948C33.7204 26.859 33.976 26.7583 34.1967 26.6015C34.4174 26.4447 34.5966 26.2365 34.7188 25.9948L35.3854 24.6282L36.0521 25.9948C36.1742 26.2365 36.3534 26.4447 36.5741 26.6015C36.7948 26.7583 37.0504 26.859 37.3188 26.8948L38.8188 27.1115L37.7354 28.1782C37.5425 28.3655 37.3978 28.5968 37.3136 28.8521C37.2295 29.1075 37.2084 29.3795 37.2521 29.6448L37.5021 31.1448L36.1688 30.4448C35.928 30.3149 35.659 30.2462 35.3854 30.2448Z" fill="#5B56B5"/>
</svg>
