<svg width="37" height="37" viewBox="0 0 37 37" fill="none" xmlns="http://www.w3.org/2000/svg">
<circle cx="18.5" cy="18.5" r="18.5" fill="#009F52" fill-opacity="0.1"/>
<path fill-rule="evenodd" clip-rule="evenodd" d="M21.293 14.2928C21.4805 14.1053 21.7348 14 22 14C22.2652 14 22.5195 14.1053 22.707 14.2928L26.707 18.2928C26.8945 18.4803 26.9998 18.7346 26.9998 18.9998C26.9998 19.265 26.8945 19.5193 26.707 19.7068L22.707 23.7068C22.5184 23.8889 22.2658 23.9897 22.0036 23.9875C21.7414 23.9852 21.4906 23.88 21.3052 23.6946C21.1198 23.5092 21.0146 23.2584 21.0123 22.9962C21.01 22.734 21.1108 22.4814 21.293 22.2928L23.586 19.9998H12C11.7348 19.9998 11.4804 19.8944 11.2929 19.7069C11.1054 19.5194 11 19.265 11 18.9998C11 18.7346 11.1054 18.4802 11.2929 18.2927C11.4804 18.1051 11.7348 17.9998 12 17.9998H23.586L21.293 15.7068C21.1055 15.5193 21.0002 15.265 21.0002 14.9998C21.0002 14.7346 21.1055 14.4803 21.293 14.2928Z" fill="#009F52"/>
</svg>
