<svg width="31" height="24" viewBox="0 0 31 24" fill="none" xmlns="http://www.w3.org/2000/svg">
<path d="M29.0933 17.5312L30.312 18.2344C30.4527 18.2812 30.4995 18.4688 30.4527 18.6094C30.1245 19.6406 29.6089 20.5312 28.9058 21.3281C28.812 21.4219 28.6245 21.4688 28.4839 21.375L27.2652 20.6719C26.7495 21.0938 26.187 21.4688 25.5308 21.6562V23.0625C25.5308 23.25 25.437 23.3906 25.2964 23.3906C24.2652 23.625 23.2339 23.625 22.1558 23.3906C22.0152 23.3906 21.9214 23.25 21.9214 23.0625V21.6562C21.2652 21.4688 20.7027 21.0938 20.187 20.6719L18.9683 21.375C18.8277 21.4688 18.6402 21.4219 18.5464 21.3281C17.8433 20.5312 17.2808 19.6406 16.9995 18.6094C16.9527 18.4688 16.9995 18.2812 17.1402 18.2344L18.3589 17.5312C18.2183 16.875 18.2183 16.1719 18.3589 15.5156L17.1402 14.8125C16.9995 14.7656 16.9527 14.5781 16.9995 14.4375C17.2808 13.4062 17.8433 12.5156 18.5464 11.7188C18.6402 11.625 18.8277 11.5781 18.9683 11.6719L20.187 12.375C20.7027 11.9531 21.2652 11.5781 21.9214 11.3906V9.98438C21.9214 9.79688 22.0152 9.65625 22.1558 9.65625C23.187 9.42188 24.2183 9.42188 25.2964 9.65625C25.437 9.65625 25.5308 9.79688 25.5308 9.98438V11.3906C26.187 11.5781 26.7495 11.9531 27.2652 12.375L28.4839 11.6719C28.6245 11.5781 28.812 11.625 28.9058 11.7188C29.6089 12.5156 30.1245 13.4062 30.4527 14.4375C30.4995 14.5781 30.4527 14.7656 30.312 14.8125L29.0933 15.5156C29.2339 16.1719 29.2339 16.875 29.0933 17.5312ZM23.7495 18.7969C24.9683 18.7969 25.9995 17.7656 25.9995 16.5C25.9995 15.2812 24.9683 14.25 23.7495 14.25C22.4839 14.25 21.4527 15.2812 21.4527 16.5C21.4527 17.7656 22.4839 18.7969 23.7495 18.7969ZM10.9995 12C7.67142 12 4.99954 9.32812 4.99954 6C4.99954 2.71875 7.67142 0 10.9995 0C14.2808 0 16.9995 2.71875 16.9995 6C16.9995 9.32812 14.2808 12 10.9995 12ZM20.4214 22.6406V23.0625C20.4214 23.25 20.4683 23.4375 20.5152 23.625C20.1402 23.8594 19.7183 24 19.2495 24H2.74954C1.48392 24 0.499544 23.0156 0.499544 21.75V19.8281C0.499544 16.3594 3.31204 13.5 6.78079 13.5H7.57767C8.60892 14.0156 9.78079 14.25 10.9995 14.25C12.2183 14.25 13.3433 14.0156 14.3745 13.5H15.1714C15.3589 13.5 15.5464 13.5469 15.7339 13.5938C15.687 13.7344 15.5933 13.8281 15.5464 13.9688C15.312 14.8125 15.6402 15.7031 16.3902 16.125L16.7652 16.3594C16.7652 16.4531 16.7652 16.5938 16.7652 16.6875L16.3902 16.9219C15.6402 17.3438 15.312 18.2344 15.5464 19.0781C15.9214 20.25 16.5777 21.4219 17.4683 22.3125C17.7964 22.6875 18.312 22.9219 18.7808 22.9219C19.1089 22.9219 19.437 22.8281 19.7183 22.6875L20.0933 22.4531C20.187 22.5 20.2808 22.5938 20.4214 22.6406Z" fill="#009F52"/>
</svg>
